<?xml version="1.0" encoding="utf-8"?>
<!-- Generator: Adobe Illustrator 23.0.6, SVG Export Plug-In . SVG Version: 6.00 Build 0)  -->
<svg version="1.1" id="Layer_1" xmlns="http://www.w3.org/2000/svg" xmlns:xlink="http://www.w3.org/1999/xlink" x="0px" y="0px"
	 viewBox="0 0 1370 585.8" style="enable-background:new 0 0 1370 585.8;" xml:space="preserve">
<style type="text/css">
	.st0{fill:#1C2833;}
	.st1{fill:#DA155C;}
	.st2{fill:#5D4FA1;}
	.st3{display:none;}
	.st4{display:inline;opacity:0.2;fill:#F01988;enable-background:new    ;}
	.st5{display:inline;opacity:0.2;}
	.st6{fill:#F01988;}
	.st7{fill:#117A7C;}
</style>
<g id="Logo">
	<path id="Psychology" class="st0" d="M487.1,347.5c-7.8-6.6-18.5-9.8-32.3-9.8h-40.2v107.5h11.4v-33.9h28.9
		c13.7,0,24.5-3.2,32.3-9.8c7.8-6.5,11.7-15.5,11.7-27C498.7,363.1,494.8,354,487.1,347.5z M478.9,394.3c-5.6,4.7-13.8,7-24.4,7
		h-28.6v-53.8h28.6c10.6,0,18.8,2.3,24.4,7c5.6,4.7,8.4,11.3,8.4,20C487.4,383,484.6,389.6,478.9,394.3z M666.6,364.4h10.8
		L637,454.9c-3.3,7.6-7.1,13-11.4,16.1c-4.3,3.2-9.5,4.8-15.5,4.8c-3.9,0-7.5-0.6-10.9-1.8c-3.4-1.2-6.3-3.1-8.8-5.5l5.1-8.1
		c4.1,4.1,9,6.1,14.7,6.1c3.7,0,6.8-1,9.4-3.1c2.6-2,5-5.5,7.3-10.4l3.5-7.8l-36.1-80.6h11.4l30.4,68.7L666.6,364.4z M574.8,410.6
		c2.8,3,4.1,7.1,4.1,12.3c0,7.1-2.9,12.7-8.8,16.8c-5.9,4.1-14.1,6.2-24.5,6.2c-6.6,0-12.8-0.9-18.8-2.8c-6-1.9-10.7-4.3-14.1-7.1
		l4.9-8.6c3.4,2.7,7.6,4.8,12.8,6.5c5.1,1.7,10.4,2.5,16,2.5c7.4,0,12.8-1.2,16.4-3.5c3.5-2.3,5.3-5.6,5.3-9.8c0-3-1-5.3-2.9-7
		c-1.9-1.7-4.4-3-7.4-3.8c-3-0.9-6.9-1.7-11.8-2.5c-6.6-1.2-11.8-2.5-15.8-3.8c-4-1.3-7.4-3.5-10.2-6.5c-2.8-3.1-4.2-7.3-4.2-12.8
		c0-6.8,2.8-12.3,8.4-16.6c5.6-4.3,13.5-6.5,23.5-6.5c5.2,0,10.4,0.7,15.7,2.1s9.5,3.2,12.9,5.5l-4.8,8.8
		c-6.7-4.6-14.6-6.9-23.8-6.9c-7,0-12.2,1.2-15.7,3.7s-5.3,5.7-5.3,9.7c0,3.1,1,5.5,3,7.4s4.5,3.2,7.5,4.1c3,0.9,7.1,1.8,12.3,2.7
		c6.5,1.2,11.6,2.5,15.5,3.7C568.7,405.6,572,407.7,574.8,410.6z M701,388.3c-2.6,4.8-3.9,10.3-3.9,16.4c0,6.2,1.3,11.8,3.9,16.5
		s6.2,8.4,10.9,11.1c4.7,2.6,9.9,3.9,15.7,3.9c4.8,0,9.3-1,13.4-2.9c4.1-1.9,7.5-4.9,10.1-8.9l8.1,5.5c-3.2,5.2-7.5,9.2-13.1,11.9
		c-5.5,2.7-11.7,4.1-18.6,4.1c-8,0-15.1-1.7-21.4-5.2c-6.3-3.5-11.2-8.4-14.8-14.7c-3.6-6.3-5.4-13.4-5.4-21.3
		c0-7.9,1.8-15,5.4-21.2c3.6-6.2,8.5-11.1,14.8-14.6c6.3-3.5,13.4-5.2,21.4-5.2c7,0,13.2,1.4,18.7,4.1c5.5,2.7,9.8,6.7,13,11.9
		l-8.1,5.5c-2.7-4-6-7-10.1-9c-4.1-2-8.6-3-13.4-3c-5.8,0-11.1,1.3-15.7,3.9C707.2,379.8,703.6,383.5,701,388.3z M844.7,372.6
		c6,5.9,9,14.5,9,25.7v46.9h-10.9v-45.8c0-8.4-2.1-14.8-6.3-19.2c-4.2-4.4-10.2-6.6-18-6.6c-8.7,0-15.6,2.6-20.7,7.8
		c-5.1,5.2-7.6,12.3-7.6,21.4v42.4h-10.9v-114h10.9v47.3c3-4.7,7.1-8.3,12.3-10.9c5.2-2.6,11.2-3.8,18-3.8
		C830.7,363.8,838.8,366.7,844.7,372.6z M931.6,369c-6.2-3.5-13.3-5.2-21-5.2c-7.8,0-14.8,1.7-21,5.2c-6.2,3.5-11.2,8.3-14.7,14.6
		c-3.6,6.2-5.4,13.3-5.4,21.2c0,7.9,1.8,15,5.4,21.2c3.6,6.2,8.5,11.1,14.7,14.7c6.2,3.5,13.3,5.3,21,5.3c7.8,0,14.8-1.8,21-5.3
		c6.2-3.5,11.1-8.4,14.7-14.7c3.5-6.2,5.3-13.3,5.3-21.2c0-7.9-1.8-15-5.3-21.2C942.7,377.3,937.9,372.5,931.6,369z M936.7,421.2
		c-2.6,4.8-6.1,8.5-10.7,11.1c-4.6,2.6-9.7,3.9-15.4,3.9c-5.7,0-10.9-1.3-15.4-3.9c-4.6-2.6-8.1-6.3-10.8-11.1
		c-2.6-4.8-3.9-10.3-3.9-16.4s1.3-11.6,3.9-16.4c2.6-4.8,6.2-8.5,10.8-11.1c4.6-2.6,9.7-3.9,15.4-3.9c5.7,0,10.9,1.3,15.4,3.9
		c4.6,2.6,8.1,6.3,10.7,11.1c2.6,4.8,3.8,10.3,3.8,16.4S939.2,416.4,936.7,421.2z M973.9,331.2h10.9v114h-10.9V331.2z M1066.2,369
		c-6.2-3.5-13.3-5.2-21-5.2c-7.8,0-14.8,1.7-21,5.2c-6.2,3.5-11.2,8.3-14.7,14.6c-3.6,6.2-5.4,13.3-5.4,21.2c0,7.9,1.8,15,5.4,21.2
		c3.6,6.2,8.5,11.1,14.7,14.7c6.2,3.5,13.3,5.3,21,5.3c7.8,0,14.8-1.8,21-5.3c6.2-3.5,11.1-8.4,14.7-14.7c3.5-6.2,5.3-13.3,5.3-21.2
		c0-7.9-1.8-15-5.3-21.2C1077.3,377.3,1072.4,372.5,1066.2,369z M1071.2,421.2c-2.6,4.8-6.1,8.5-10.7,11.1
		c-4.6,2.6-9.7,3.9-15.4,3.9c-5.7,0-10.9-1.3-15.4-3.9c-4.6-2.6-8.1-6.3-10.8-11.1c-2.6-4.8-3.9-10.3-3.9-16.4s1.3-11.6,3.9-16.4
		c2.6-4.8,6.2-8.5,10.8-11.1c4.6-2.6,9.7-3.9,15.4-3.9c5.7,0,10.9,1.3,15.4,3.9c4.6,2.6,8.1,6.3,10.7,11.1
		c2.6,4.8,3.8,10.3,3.8,16.4S1073.8,416.4,1071.2,421.2z M1175.9,379.9c-3.4-5.2-7.8-9.2-13.4-12c-5.5-2.8-11.7-4.1-18.6-4.1
		c-7.7,0-14.6,1.6-20.7,4.9c-6.1,3.3-11,7.9-14.5,13.8c-3.5,5.9-5.3,12.7-5.3,20.3c0,7.6,1.8,14.4,5.3,20.4s8.4,10.7,14.6,14
		c6.2,3.3,13.1,5,20.7,5c6.7,0,12.7-1.3,18.2-4c5.5-2.7,9.9-6.6,13.3-11.7v10.3c0,10-2.4,17.4-7.2,22.2c-4.8,4.8-12.3,7.1-22.6,7.1
		c-6.1,0-12-1-17.6-2.9c-5.6-1.9-10.3-4.7-14.2-8.1l-5.5,8.3c4.2,3.9,9.7,6.9,16.4,9.1c6.7,2.2,13.8,3.3,21.3,3.3
		c13.5,0,23.6-3.3,30.3-9.9c6.7-6.6,10.1-16.8,10.1-30.5v-71h-10.4L1175.9,379.9L1175.9,379.9z M1171.8,418.1
		c-2.6,4.5-6.3,8-11,10.5c-4.7,2.5-10,3.8-15.8,3.8c-5.8,0-11.1-1.3-15.7-3.8c-4.7-2.5-8.3-6-10.9-10.5s-3.9-9.6-3.9-15.4
		c0-5.7,1.3-10.9,3.9-15.4c2.6-4.5,6.2-8,10.9-10.4c4.7-2.5,9.9-3.7,15.7-3.7c5.9,0,11.2,1.3,15.9,3.8c4.7,2.5,8.3,6,10.9,10.4
		s3.9,9.5,3.9,15.3C1175.7,408.5,1174.4,413.6,1171.8,418.1z M1287.8,364.4l-40.4,90.5c-3.3,7.6-7.1,13-11.4,16.1
		c-4.3,3.2-9.5,4.8-15.5,4.8c-3.9,0-7.5-0.6-10.9-1.8c-3.4-1.2-6.3-3.1-8.8-5.5l5.1-8.1c4.1,4.1,9,6.1,14.7,6.1c3.7,0,6.8-1,9.4-3.1
		s5-5.5,7.3-10.4l3.5-7.8l-36.1-80.6h11.4l30.4,68.7l30.4-68.7L1287.8,364.4L1287.8,364.4z"/>
	<path id="RHODES" class="st0" d="M518.6,229.9c5.7-7.8,8.5-17.3,8.5-28.5c0-15.4-5.2-27.4-15.6-36.2c-10.4-8.8-24.8-13.2-43.2-13.2
		h-53.9v144.1h15.2v-45.7h38.7c4,0,7.8-0.2,11.5-0.6l32.9,46.3h16.7l-35.2-49.4C504.8,243.2,512.9,237.6,518.6,229.9z M467.9,237.4
		h-38.3v-72.3h38.3c14.3,0,25.2,3.1,32.7,9.4c7.5,6.2,11.3,15.2,11.3,26.9c0,11.4-3.8,20.2-11.3,26.6
		C493.1,234.2,482.2,237.4,467.9,237.4z M668.6,152h15v144.1h-15v-66.5h-90.2v66.5h-15.2V152h15.2v64.2h90.2V152z M824,160.2
		c-11.5-6.3-24.3-9.5-38.6-9.5c-14.3,0-27.2,3.2-38.8,9.6c-11.6,6.4-20.7,15.1-27.2,26.2c-6.5,11.1-9.8,23.6-9.8,37.5
		c0,13.9,3.3,26.4,9.8,37.5c6.5,11.1,15.6,19.9,27.2,26.2c11.6,6.4,24.5,9.6,38.8,9.6c14.3,0,27.1-3.2,38.6-9.5
		c11.5-6.3,20.5-15.1,27.1-26.2c6.6-11.2,9.9-23.7,9.9-37.6c0-13.9-3.3-26.4-9.9-37.6C844.4,175.3,835.4,166.5,824,160.2z
		 M837.8,254.6c-5.2,9.1-12.4,16.3-21.6,21.4c-9.2,5.1-19.5,7.7-30.9,7.7c-11.4,0-21.7-2.6-31-7.7c-9.3-5.1-16.5-12.3-21.8-21.4
		c-5.3-9.1-7.9-19.3-7.9-30.6c0-11.3,2.6-21.4,7.9-30.6c5.3-9.1,12.6-16.3,21.8-21.4c9.3-5.1,19.6-7.7,31-7.7
		c11.4,0,21.7,2.6,30.9,7.7c9.2,5.1,16.4,12.3,21.6,21.4c5.2,9.1,7.8,19.3,7.8,30.6C845.7,235.3,843.1,245.5,837.8,254.6z
		 M990,161.1c-11.7-6.1-25.1-9.2-40.4-9.2H891v144.1h58.7c15.2,0,28.7-3.1,40.4-9.2c11.7-6.1,20.7-14.6,27.2-25.5
		c6.5-10.9,9.7-23.4,9.7-37.4s-3.2-26.5-9.7-37.4C1010.7,175.7,1001.6,167.2,990,161.1z M1004,254.6c-5.2,8.9-12.6,15.8-22,20.8
		c-9.5,5-20.5,7.5-33.1,7.5h-42.6V165.1h42.6c12.6,0,23.7,2.5,33.1,7.5c9.5,5,16.8,11.9,22,20.8c5.2,8.9,7.8,19,7.8,30.6
		C1011.8,235.5,1009.2,245.7,1004,254.6z M1068,282.9h86.7v13.2h-101.9V152h98.8v13.2H1068v51.3h74.5v13H1068L1068,282.9L1068,282.9
		z M1288.1,258c0,7.3-2,13.9-5.9,19.9c-3.9,6-9.9,10.7-18,14.2c-8.1,3.5-18,5.2-29.9,5.2c-10.7,0-21-1.7-30.8-5.1
		c-9.8-3.4-17.4-8-22.8-13.6l6-11.7c5.2,5.2,12.1,9.4,20.8,12.7c8.6,3.2,17.6,4.8,26.8,4.8c12.9,0,22.6-2.4,29-7.1
		c6.4-4.7,9.7-10.9,9.7-18.4c0-5.8-1.8-10.4-5.2-13.8c-3.5-3.4-7.8-6.1-12.9-7.9c-5.1-1.9-12.1-3.9-21.2-6.1
		c-10.8-2.7-19.5-5.4-25.9-7.9c-6.5-2.5-12-6.4-16.6-11.6c-4.6-5.2-6.9-12.3-6.9-21.2c0-7.3,1.9-13.9,5.8-19.9
		c3.8-6,9.7-10.7,17.7-14.3c8-3.6,17.8-5.4,29.6-5.4c8.2,0,16.3,1.1,24.2,3.4c7.9,2.3,14.7,5.4,20.5,9.4l-5.1,12.1
		c-6-4-12.5-7-19.4-9c-6.9-2-13.6-3-20.2-3c-12.6,0-22.1,2.4-28.5,7.3c-6.4,4.9-9.6,11.2-9.6,18.8c0,5.8,1.8,10.4,5.2,13.9
		s7.9,6.2,13.2,8c5.3,1.9,12.4,3.9,21.3,6.1c10.6,2.6,19.1,5.2,25.6,7.7c6.5,2.5,12,6.4,16.6,11.5
		C1285.8,242.2,1288.1,249.2,1288.1,258z"/>
	<path id="Child" class="st1" d="M155.2,203.6c-4.3-6.3-9.4-16.4-6.6-28.5c2.1-9,9.4-19.8,24.7-17.7c14.5,2,17.5,16.2,17.1,26.9
		c-0.4,11.9-7.7,26.2-16.3,27.1C167.5,212.2,160,210.6,155.2,203.6z M246.4,267.7c-16.2-62.1-77.8-49.1-91.7-45.3
		c-0.4,0.1-0.8,0.2-1.1,0.3c-1.1,0.3-0.2,2.5-0.2,2.5c8.3,9.5-10.7,28.5-19,34.3c-6.2,4.4-10.9,1.9-12.8,0.4
		c-0.6-0.5-1.3,0.3-1.5,0.9c-20.5,56.4,4.7,71.6,16.6,69.4c12-2.2,10.4-14.4,8.9-20c-1.3-5-8.6-6.7-11.7-5c-0.4,0.2-1.8,0.1-2-1.4
		c-0.4-5-1.1-16.2,0-21.8c0.8-4,1.9-5.7,4-6.2c1.7-0.4,2.4,2.2,2.4,2.2l1.1,15.8c0,0,0.4,1.9,2,2.7c2.2,1.1,6,2.1,9,6.3
		c4.5,6.3,5,19.8-1.3,29.5c-1.9,2.9-6.4,4.4-8.9,5.2c-1.1,0.3-2.6,2-2.6,3.7c0,71.6,0.7,133.8,0.7,140.9c0,12.2,2.2,19.7,11.2,19.7
		c16.2,0,16.6-17.8,16.6-17.8c3-61.8,2.1-125.7,2.4-128.4c0.4-4.1,4-5.8,5.3-3.7c3.6,5.6,33.9,68.7,51,116.7
		c4.6,12.8,5.9,17.3,8.2,24.5c3.5,11,16.6,10.4,25.2,9.1c9-1.4-0.7-22.6-0.7-22.6c-36.1-95.4-41.8-116.5-50.5-139.1
		c-0.6-1.4-2.1-6.1-5.6-6c-7.7,0.3-15.5-2.6-20.2-8c-5-5.7-4.3-16.7-2.8-20.8c1.5-4.3,6.1-7.2,12.3-8.8c9.5-2.5,9-4.4,10.7-5.3
		c0.5-0.3,0.7-1.5,0.7-1.5l1.1-30c0,0,0.4-4.5,4.5-3.1c14.4,4.9,14.8,31.1,14.8,31.1c0.3,8.3-20,13.6-27,14.9s-12.9,2.6-11.5,12.4
		c1.6,11.1,15.3,11.1,15.3,11.1c22.3-1.4,37.6-9.6,41.5-12.6c0.7-0.5,3.3-3.8,1.5-5.5c-3.6-3.4-11.6-8.8-11-19.2
		c0.6-10.4,9.8-16.1,13.8-18.2C246.3,270.5,246.6,268.5,246.4,267.7z"/>
	<path id="Parent_L" class="st2" d="M83.1,118.8c-2.7-12.7,0.2-27.2,18.3-31.7c15-3.8,27.6,7.6,31,18.8c3.9,12.6,4.5,30.4-6.2,36.9
		c-9.8,5.9-19.3,5.8-26.8,0.2C92.6,137.9,85.8,131.4,83.1,118.8z M142.6,223.3c-10.1-4.9-19.7,1.7-24.4,11.6
		c-4.7,9.9,5.3,18.2,5.3,18.2c5.7,4.8,13.3-4.3,19.1-10.3C148.3,236.8,152.7,228.2,142.6,223.3z M284,155.2
		c-7.5-3.1-11.7,3.9-11.7,3.9c-5.8,6.8,2.8,17.1,7.8,21.5c5,4.4,17.3,13.7,22.6,0.7C308,168.3,291.4,158.3,284,155.2z M219.4,139.1
		c-6.4-1.8-27.8-3.4-46.4-2.3c-16.5,1-37.5,4.1-61.3,25.3c-35.8,32-19.2,104.2-16.6,108.4c4,4.5,10.5,5.1,13,0.8l5.5-17.4
		c0,0,0-1.4-0.5-2.1c-2.3-3.6-7.9-15.1,4.7-27.7c0,0,11.3-14.4,25.7-8.1c0.6,0.3,3.6,0.5,3.6,0.5l3.1-0.8c0,0,1.3-1.1,0.2-2.3
		c-3.7-4.2-12-15.8-10.9-34.1c1.5-23.5,15.6-28.7,22.6-30.6c11.7-3.1,23.1,2.1,28.6,8.5c0.4,0.5,1.8,0.8,2.6,0.2
		c3.2-2.7,10.4-8.6,25.8-12.2C222.9,144.4,221.7,139.7,219.4,139.1z M127.4,338.1c-3.2-0.9-10.2-2.3-15.5-10.8
		c-6.5-10.4-9.7-17.8-7-39.8c0.2-1.5,0.1-5.5-3.1-5.5c-2.6,0-1.1,0-3,0c-3.1,0-3.9,4.4-3.9,6.4c0,30.8,2.9,186.9,3.7,196.9
		s6.6,15.4,18.2,15.4c9.4,0,13.9-5.5,13.9-16.5c0-11.3-0.9-50.7-0.9-143.2C129.7,339.9,128.4,338.4,127.4,338.1z"/>
</g>
<g id="Guides" class="st3">
	<path class="st4" d="M352.5,271.5c-6.2-3.5-11.2-8.4-14.7-14.7c-3.6-6.2-5.4-13.3-5.4-21.2c0-7.9,1.8-15,5.4-21.2
		c3.6-6.2,8.5-11.1,14.7-14.6c6.2-3.5,13.3-5.2,21-5.2c7.8,0,14.8,1.7,21,5.2c6.2,3.5,11.1,8.3,14.7,14.6c3.5,6.2,5.3,13.3,5.3,21.2
		c0,7.9-1.8,15-5.3,21.2c-3.5,6.2-8.4,11.1-14.7,14.7c-6.2,3.5-13.3,5.3-21,5.3C365.8,276.8,358.8,275,352.5,271.5z M389,263.2
		c4.6-2.6,8.1-6.3,10.7-11.1c2.6-4.8,3.8-10.3,3.8-16.4s-1.3-11.6-3.8-16.4c-2.6-4.8-6.1-8.5-10.7-11.1c-4.6-2.6-9.7-3.9-15.4-3.9
		c-5.7,0-10.9,1.3-15.4,3.9c-4.6,2.6-8.1,6.3-10.8,11.1c-2.6,4.8-3.9,10.3-3.9,16.4s1.3,11.6,3.9,16.4c2.6,4.8,6.2,8.5,10.8,11.1
		c4.6,2.6,9.7,3.9,15.4,3.9C379.3,267.1,384.4,265.8,389,263.2z"/>
	<path class="st4" d="M400.5,373c-6.2-3.5-11.2-8.4-14.7-14.7c-3.6-6.2-5.4-13.3-5.4-21.2c0-7.9,1.8-15,5.4-21.2
		c3.6-6.2,8.5-11.1,14.7-14.6c6.2-3.5,13.3-5.2,21-5.2c7.8,0,14.8,1.7,21,5.2c6.2,3.5,11.1,8.3,14.7,14.6c3.5,6.2,5.3,13.3,5.3,21.2
		c0,7.9-1.8,15-5.3,21.2c-3.5,6.2-8.4,11.1-14.7,14.7c-6.2,3.5-13.3,5.3-21,5.3C413.8,378.3,406.8,376.6,400.5,373z M437,364.7
		c4.6-2.6,8.1-6.3,10.7-11.1c2.6-4.8,3.8-10.3,3.8-16.4s-1.3-11.6-3.8-16.4c-2.6-4.8-6.1-8.5-10.7-11.1c-4.6-2.6-9.7-3.9-15.4-3.9
		c-5.7,0-10.9,1.3-15.4,3.9c-4.6,2.6-8.1,6.3-10.8,11.1c-2.6,4.8-3.9,10.3-3.9,16.4s1.3,11.6,3.9,16.4c2.6,4.8,6.2,8.5,10.8,11.1
		c4.6,2.6,9.7,3.9,15.4,3.9C427.3,368.7,432.4,367.3,437,364.7z"/>
	<path class="st4" d="M229,76.9c-6.2-3.5-11.2-8.4-14.7-14.7c-3.6-6.2-5.4-13.3-5.4-21.2c0-7.9,1.8-15,5.4-21.2
		c3.6-6.2,8.5-11.1,14.7-14.6c6.2-3.5,13.3-5.2,21-5.2c7.8,0,14.8,1.7,21,5.2c6.2,3.5,11.1,8.3,14.7,14.6c3.5,6.2,5.3,13.3,5.3,21.2
		c0,7.9-1.8,15-5.3,21.2c-3.5,6.2-8.4,11.1-14.7,14.7c-6.2,3.5-13.3,5.3-21,5.3C242.3,82.2,235.3,80.4,229,76.9z M265.5,68.6
		c4.6-2.6,8.1-6.3,10.7-11.1c2.6-4.8,3.8-10.3,3.8-16.4s-1.3-11.6-3.8-16.4c-2.6-4.8-6.1-8.5-10.7-11.1c-4.6-2.6-9.7-3.9-15.4-3.9
		c-5.7,0-10.9,1.3-15.4,3.9c-4.6,2.6-8.1,6.3-10.8,11.1c-2.6,4.8-3.9,10.3-3.9,16.4s1.3,11.6,3.9,16.4c2.6,4.8,6.2,8.5,10.8,11.1
		c4.6,2.6,9.7,3.9,15.4,3.9C255.8,72.5,260.9,71.2,265.5,68.6z"/>
	<path class="st4" d="M264.4,580.5c-6.2-3.5-11.2-8.4-14.7-14.7c-3.6-6.2-5.4-13.3-5.4-21.2c0-7.9,1.8-15,5.4-21.2
		c3.6-6.2,8.5-11.1,14.7-14.6c6.2-3.5,13.3-5.2,21-5.2c7.8,0,14.8,1.7,21,5.2c6.2,3.5,11.1,8.3,14.7,14.6c3.5,6.2,5.3,13.3,5.3,21.2
		c0,7.9-1.8,15-5.3,21.2c-3.5,6.2-8.4,11.1-14.7,14.7c-6.2,3.5-13.3,5.3-21,5.3C277.7,585.8,270.7,584,264.4,580.5z M300.9,572.2
		c4.6-2.6,8.1-6.3,10.7-11.1c2.6-4.8,3.8-10.3,3.8-16.4s-1.3-11.6-3.8-16.4c-2.6-4.8-6.1-8.5-10.7-11.1c-4.6-2.6-9.7-3.9-15.4-3.9
		c-5.7,0-10.9,1.3-15.4,3.9c-4.6,2.6-8.1,6.3-10.8,11.1c-2.6,4.8-3.9,10.3-3.9,16.4s1.3,11.6,3.9,16.4s6.2,8.5,10.8,11.1
		c4.6,2.6,9.7,3.9,15.4,3.9C291.2,576.1,296.4,574.8,300.9,572.2z"/>
	<path class="st4" d="M1308,282.5c-6.2-3.5-11.2-8.4-14.7-14.7c-3.6-6.2-5.4-13.3-5.4-21.2c0-7.9,1.8-15,5.4-21.2
		c3.6-6.2,8.5-11.1,14.7-14.6c6.2-3.5,13.3-5.2,21-5.2s14.8,1.7,21,5.2c6.2,3.5,11.1,8.3,14.7,14.6c3.5,6.2,5.3,13.3,5.3,21.2
		c0,7.9-1.8,15-5.3,21.2c-3.5,6.2-8.4,11.1-14.7,14.7c-6.2,3.5-13.3,5.3-21,5.3S1314.2,286,1308,282.5z M1344.4,274.2
		c4.6-2.6,8.1-6.3,10.7-11.1c2.6-4.8,3.8-10.3,3.8-16.4s-1.3-11.6-3.8-16.4c-2.6-4.8-6.1-8.5-10.7-11.1c-4.6-2.6-9.7-3.9-15.4-3.9
		c-5.7,0-10.9,1.3-15.4,3.9c-4.6,2.6-8.1,6.3-10.8,11.1c-2.6,4.8-3.9,10.3-3.9,16.4s1.3,11.6,3.9,16.4s6.2,8.5,10.8,11.1
		c4.6,2.6,9.7,3.9,15.4,3.9C1334.7,278.1,1339.9,276.8,1344.4,274.2z"/>
	<g class="st5">
		<path class="st6" d="M20.1,149.4c-6.2-3.5-11.2-8.4-14.7-14.7C1.8,128.4,0,121.4,0,113.5c0-7.9,1.8-15,5.4-21.2
			c3.6-6.2,8.5-11.1,14.7-14.6c6.2-3.5,13.3-5.2,21-5.2c7.8,0,14.8,1.7,21,5.2c6.2,3.5,11.1,8.3,14.7,14.6
			c3.5,6.2,5.3,13.3,5.3,21.2c0,7.9-1.8,15-5.3,21.2c-3.5,6.2-8.4,11.1-14.7,14.7c-6.2,3.5-13.3,5.3-21,5.3
			C33.4,154.7,26.4,152.9,20.1,149.4z M56.6,141.1c4.6-2.6,8.1-6.3,10.7-11.1c2.6-4.8,3.8-10.3,3.8-16.4s-1.3-11.6-3.8-16.4
			c-2.6-4.8-6.1-8.5-10.7-11.1C52,83.3,46.9,82,41.2,82c-5.7,0-10.9,1.3-15.4,3.9c-4.6,2.6-8.1,6.3-10.8,11.1
			c-2.6,4.8-3.9,10.3-3.9,16.4s1.3,11.6,3.9,16.4s6.2,8.5,10.8,11.1c4.6,2.6,9.7,3.9,15.4,3.9C46.9,145,52,143.7,56.6,141.1z"/>
	</g>
</g>
<g>
	<path class="st7" d="M240.4,143.4c5.5,1.2,11.4-1.3,16.5-5.2c7.6,1.3,13.2,3.4,16.7,5.5c5.4,3.1,4.2-4.2,4.2-4.2
		c-0.7-6-1.6-15-2.1-25.2c-0.8-16.7-7-27.8-24.6-29.2c-1-0.1-1.9-0.2-2.9-0.2c-0.6,0-1.2,0-1.8,0c-9.4,0.1-14.6,4.6-17.5,9.6
		c-0.8,1-1.5,2.1-2.2,3.2c-5.1,9.1-4.1,20.8-0.8,29.8C229.6,137.9,236.6,142.6,240.4,143.4z"/>
	<path class="st7" d="M254.3,322.4c-0.1-0.3-2-4.8-6.4-2.8c-1,0.4-7.3,6.6-30.7,13.1c-1.8,0.5-3.9,2.4-1.8,7.6
		c8.5,20.7,35.5,95.9,51.6,138.8c5.3,14.1,5.4,28.1,29.9,23.7c13.2-2.4,5.2-6.8-4.2-38.5C277.1,412,262.3,359.7,254.3,322.4z"/>
	<path class="st7" d="M308.8,190.5c-0.7-0.8-1.7-1.1-2.8,0.3c-4.7,6.2-14.6,10.2-30.8-3.3c-12.6-10.5-12.6-17.8-12.8-23.2
		c-0.1-2.6,1-5.1-0.2-7.2c-1.3-2.1-5.9-2.6-6.4-2.7c-34.8-4.6-49.6,6.2-55.6,10.2c-1.8,1.2-3.6,2.9-3,5.3c0.5,2,1.6,7,1.2,15.3
		c-0.7,13.3-3.8,21-5.9,24.3c-0.9,1.3-0.5,2,1.1,2.2c10.1,1.2,47.6,8.5,58.2,50.3c0,0,1,4.4,4.9,2.4c0,0,1.4,0,1.7-3.2
		c3.3-40.4,3.5-50.6,11-54.8c9-5,24.5,3.4,27.3,22.2c4.3,28.5-17.8,45.1-36.7,47.8c-14.8,2.2-21.6,6.2-19.6,16.4
		c1.9,9.5,16.9,7.3,16.9,7.3s56.5-6.2,65.4-48.4C329.8,219.2,316.5,198.5,308.8,190.5z"/>
</g>
</svg>
